<svg width="901" height="257" viewBox="0 0 901 257" fill="none" xmlns="http://www.w3.org/2000/svg">
<path d="M299.325 203.75C299.325 207.2 300.1 210.225 301.65 212.825C303.25 215.375 305.325 217.35 307.875 218.75C310.425 220.1 313.2 220.775 316.2 220.775C318.7 220.775 320.925 220.45 322.875 219.8C324.825 219.15 326.575 218.275 328.125 217.175C329.725 216.075 331.1 214.875 332.25 213.575V225.65C330.1 227.35 327.75 228.675 325.2 229.625C322.7 230.575 319.525 231.05 315.675 231.05C311.675 231.05 307.95 230.4 304.5 229.1C301.1 227.8 298.125 225.925 295.575 223.475C293.075 221.025 291.125 218.15 289.725 214.85C288.375 211.5 287.7 207.8 287.7 203.75C287.7 199.7 288.375 196.025 289.725 192.725C291.125 189.375 293.075 186.475 295.575 184.025C298.125 181.575 301.1 179.7 304.5 178.4C307.95 177.1 311.675 176.45 315.675 176.45C319.525 176.45 322.7 176.925 325.2 177.875C327.75 178.825 330.1 180.15 332.25 181.85V193.925C331.1 192.625 329.725 191.425 328.125 190.325C326.575 189.225 324.825 188.35 322.875 187.7C320.925 187.05 318.7 186.725 316.2 186.725C313.2 186.725 310.425 187.425 307.875 188.825C305.325 190.175 303.25 192.125 301.65 194.675C300.1 197.225 299.325 200.25 299.325 203.75ZM343.672 177.5H354.397V220.625H375.322V230H343.672V177.5ZM389.115 230V220.925H415.59V230H389.115ZM389.115 186.575V177.5H415.59V186.575H389.115ZM389.115 206.6V197.675H414.09V206.6H389.115ZM382.215 177.5H392.565V230H382.215V177.5ZM434.185 218.075L435.46 209.6H460.66L461.935 218.075H434.185ZM447.91 194.525L440.035 212.6L440.26 215L433.36 230H421.285L447.91 174.425L474.535 230H462.385L455.635 215.45L455.785 212.75L447.91 194.525ZM518.33 177.5H528.68V232.625L491.33 197.45V230H480.98V174.875L518.33 210.05V177.5ZM540.837 177.5H551.712V230H540.837V177.5ZM601.129 177.5H611.479V232.625L574.129 197.45V230H563.779V174.875L601.129 210.05V177.5ZM649.136 210.5V201.95H675.011C675.161 205.95 674.686 209.725 673.586 213.275C672.536 216.825 670.861 219.975 668.561 222.725C666.311 225.425 663.511 227.55 660.161 229.1C656.811 230.65 652.986 231.425 648.686 231.425C644.636 231.425 640.886 230.75 637.436 229.4C634.036 228.05 631.061 226.15 628.511 223.7C626.011 221.25 624.061 218.325 622.661 214.925C621.311 211.525 620.636 207.8 620.636 203.75C620.636 199.7 621.336 196 622.736 192.65C624.186 189.25 626.186 186.35 628.736 183.95C631.286 181.55 634.286 179.7 637.736 178.4C641.186 177.1 644.936 176.45 648.986 176.45C652.586 176.45 655.811 176.95 658.661 177.95C661.561 178.95 664.111 180.35 666.311 182.15C668.561 183.9 670.486 186 672.086 188.45L662.936 193.775C661.636 191.475 659.811 189.625 657.461 188.225C655.161 186.775 652.336 186.05 648.986 186.05C645.836 186.05 642.961 186.775 640.361 188.225C637.761 189.625 635.686 191.65 634.136 194.3C632.636 196.95 631.886 200.1 631.886 203.75C631.886 207.35 632.636 210.525 634.136 213.275C635.636 215.975 637.661 218.075 640.211 219.575C642.811 221.075 645.736 221.825 648.986 221.825C651.136 221.825 653.061 221.55 654.761 221C656.461 220.4 657.911 219.575 659.111 218.525C660.361 217.475 661.411 216.275 662.261 214.925C663.111 213.575 663.761 212.1 664.211 210.5H649.136ZM707.753 177.5H718.478V220.625H739.403V230H707.753V177.5ZM735.772 187.175V177.5H774.772V187.175H760.597V230H749.872V187.175H735.772ZM781.616 177.5H792.566V230H781.616V177.5ZM799.466 230H788.516V220.25H799.091C801.391 220.25 803.566 219.95 805.616 219.35C807.666 218.7 809.466 217.7 811.016 216.35C812.566 215 813.766 213.3 814.616 211.25C815.516 209.15 815.966 206.65 815.966 203.75C815.966 200.85 815.516 198.375 814.616 196.325C813.766 194.225 812.566 192.5 811.016 191.15C809.466 189.8 807.666 188.825 805.616 188.225C803.566 187.575 801.391 187.25 799.091 187.25H788.516V177.5H799.466C804.966 177.5 809.766 178.575 813.866 180.725C818.016 182.875 821.241 185.925 823.541 189.875C825.841 193.775 826.991 198.4 826.991 203.75C826.991 209.1 825.841 213.75 823.541 217.7C821.241 221.6 818.016 224.625 813.866 226.775C809.766 228.925 804.966 230 799.466 230Z" fill="#00C8FF"/>
<path d="M290.88 50H309.47V141H290.88V50ZM302.19 65.73V50H320.26C327.453 50 333.563 51.17 338.59 53.51C343.703 55.85 347.603 59.1867 350.29 63.52C352.977 67.8533 354.32 73.01 354.32 78.99C354.32 84.8833 352.977 90.04 350.29 94.46C347.603 98.7933 343.703 102.13 338.59 104.47C333.563 106.81 327.453 107.98 320.26 107.98H302.19V92.25H320.26C325.2 92.25 329.1 91.1233 331.96 88.87C334.82 86.6167 336.25 83.3233 336.25 78.99C336.25 74.57 334.82 71.2767 331.96 69.11C329.1 66.8567 325.2 65.73 320.26 65.73H302.19ZM395.872 98.62H415.502L445.142 141H423.172L395.872 98.62ZM375.202 50H393.792V141H375.202V50ZM386.512 65.86V50H405.752C412.946 50 419.056 51.2133 424.082 53.64C429.109 56.0667 432.966 59.4467 435.652 63.78C438.339 68.1133 439.682 73.1833 439.682 78.99C439.682 84.71 438.339 89.78 435.652 94.2C432.966 98.5333 429.109 101.913 424.082 104.34C419.056 106.767 412.946 107.98 405.752 107.98H386.512V93.16H404.582C407.876 93.16 410.692 92.64 413.032 91.6C415.459 90.4733 417.322 88.9133 418.622 86.92C419.922 84.84 420.572 82.37 420.572 79.51C420.572 76.65 419.922 74.2233 418.622 72.23C417.322 70.15 415.459 68.59 413.032 67.55C410.692 66.4233 407.876 65.86 404.582 65.86H386.512ZM474.278 141V125.27H520.168V141H474.278ZM474.278 65.73V50H520.168V65.73H474.278ZM474.278 100.44V84.97H517.568V100.44H474.278ZM462.318 50H480.258V141H462.318V50ZM559.939 95.5C559.939 101.48 561.283 106.723 563.969 111.23C566.743 115.65 570.339 119.073 574.759 121.5C579.179 123.84 583.989 125.01 589.189 125.01C593.523 125.01 597.379 124.447 600.759 123.32C604.139 122.193 607.173 120.677 609.859 118.77C612.633 116.863 615.016 114.783 617.009 112.53V133.46C613.283 136.407 609.209 138.703 604.789 140.35C600.456 141.997 594.953 142.82 588.279 142.82C581.346 142.82 574.889 141.693 568.909 139.44C563.016 137.187 557.859 133.937 553.439 129.69C549.106 125.443 545.726 120.46 543.299 114.74C540.959 108.933 539.789 102.52 539.789 95.5C539.789 88.48 540.959 82.11 543.299 76.39C545.726 70.5833 549.106 65.5567 553.439 61.31C557.859 57.0633 563.016 53.8133 568.909 51.56C574.889 49.3067 581.346 48.18 588.279 48.18C594.953 48.18 600.456 49.0033 604.789 50.65C609.209 52.2967 613.283 54.5933 617.009 57.54V78.47C615.016 76.2167 612.633 74.1367 609.859 72.23C607.173 70.3233 604.139 68.8067 600.759 67.68C597.379 66.5533 593.523 65.99 589.189 65.99C583.989 65.99 579.179 67.2033 574.759 69.63C570.339 71.97 566.743 75.35 563.969 79.77C561.283 84.19 559.939 89.4333 559.939 95.5ZM642.007 50H660.857V141H642.007V50ZM694.904 110.45C696.81 113.83 698.89 116.777 701.144 119.29C703.484 121.803 706.04 123.753 708.814 125.14C711.587 126.527 714.577 127.22 717.784 127.22C721.51 127.22 724.544 126.267 726.884 124.36C729.224 122.453 730.394 119.853 730.394 116.56C730.394 113.7 729.657 111.403 728.184 109.67C726.797 107.937 724.674 106.42 721.814 105.12C719.04 103.733 715.617 102.26 711.544 100.7C709.377 99.92 706.864 98.88 704.004 97.58C701.23 96.1933 698.587 94.46 696.074 92.38C693.56 90.2133 691.48 87.6133 689.834 84.58C688.187 81.46 687.364 77.7333 687.364 73.4C687.364 68.2 688.664 63.7367 691.264 60.01C693.95 56.1967 697.547 53.2933 702.054 51.3C706.647 49.22 711.76 48.18 717.394 48.18C723.2 48.18 728.184 49.1767 732.344 51.17C736.59 53.0767 740.1 55.5467 742.874 58.58C745.734 61.5267 747.944 64.6033 749.504 67.81L734.944 75.87C733.73 73.7033 732.257 71.7533 730.524 70.02C728.877 68.2 726.97 66.77 724.804 65.73C722.637 64.6033 720.167 64.04 717.394 64.04C713.754 64.04 711.024 64.9067 709.204 66.64C707.384 68.2867 706.474 70.2367 706.474 72.49C706.474 74.7433 707.21 76.7367 708.684 78.47C710.157 80.1167 712.41 81.72 715.444 83.28C718.477 84.7533 722.29 86.27 726.884 87.83C729.83 88.87 732.647 90.17 735.334 91.73C738.107 93.29 740.577 95.1967 742.744 97.45C744.997 99.6167 746.73 102.217 747.944 105.25C749.244 108.197 749.894 111.62 749.894 115.52C749.894 119.94 749.027 123.883 747.294 127.35C745.56 130.817 743.177 133.763 740.144 136.19C737.11 138.53 733.687 140.307 729.874 141.52C726.147 142.82 722.204 143.47 718.044 143.47C712.497 143.47 707.297 142.43 702.444 140.35C697.677 138.183 693.517 135.28 689.964 131.64C686.41 128 683.637 124.057 681.644 119.81L694.904 110.45ZM783.51 141V125.27H829.4V141H783.51ZM783.51 65.73V50H829.4V65.73H783.51ZM783.51 100.44V84.97H826.8V100.44H783.51ZM771.55 50H789.49V141H771.55V50Z" fill="black"/>
<path d="M125.534 0C194.865 0.000241041 251.068 57.5316 251.068 128.5C251.068 199.468 194.865 257 125.534 257C117.771 257 110.173 256.276 102.8 254.896V224.634C110.093 226.405 117.706 227.346 125.534 227.346C179.306 227.345 222.897 183.091 222.897 128.5C222.897 73.9089 179.306 29.6545 125.534 29.6543C71.762 29.6544 28.1709 73.9088 28.1709 128.5C28.1709 137.572 29.3758 146.357 31.6299 154.702V213.781C11.9513 191.094 0 161.226 0 128.5C0 57.5315 56.2035 0.000101323 125.534 0ZM126 57C166.317 57 199 89.2355 199 129C199 168.764 166.317 201 126 201C109.023 201 93.3996 195.284 81 185.696V249.5C68.2687 245.155 62.1163 241.354 53 232V125H53.1123C55.2167 87.0961 87.0441 57 126 57ZM126.511 84.3799C101.7 84.3799 81.5879 104.357 81.5879 129C81.5879 153.643 101.7 173.62 126.511 173.62C151.321 173.62 171.434 153.643 171.434 129C171.434 104.357 151.321 84.38 126.511 84.3799ZM125.5 111C135.717 111 144 118.835 144 128.5C144 138.165 135.717 146 125.5 146C115.283 146 107 138.165 107 128.5C107 118.835 115.283 111 125.5 111Z" fill="#00C8FF"/>
</svg>
